<?xml version="1.0" encoding="UTF-8"?>
<svg xmlns="http://www.w3.org/2000/svg" xmlns:xlink="http://www.w3.org/1999/xlink" width="30px" height="30px" viewBox="0 0 30 30" version="1.1">
<g id="surface1">
<path style=" stroke:none;fill-rule:nonzero;fill:rgb(100%,0%,0%);fill-opacity:1;" d="M 3.375 6.753906 C 2.550781 7.234375 1.867188 7.699219 1.867188 7.808594 C 1.867188 8.035156 4.910156 9.78125 5.164062 9.6875 C 5.3125 9.621094 5.351562 9.433594 5.3125 8.875 L 5.269531 8.140625 L 7.660156 8.140625 L 11.078125 11.503906 C 12.945312 13.359375 14.492188 14.90625 14.507812 14.945312 C 14.53125 14.988281 13 16.5625 11.117188 18.457031 L 7.671875 21.886719 L 5.269531 21.886719 L 5.3125 21.152344 C 5.351562 20.589844 5.3125 20.40625 5.164062 20.339844 C 4.910156 20.246094 1.867188 21.992188 1.867188 22.21875 C 1.867188 22.460938 4.910156 24.195312 5.164062 24.101562 C 5.3125 24.035156 5.351562 23.847656 5.3125 23.289062 L 5.269531 22.554688 L 7.941406 22.554688 L 11.488281 19.003906 L 15.039062 15.453125 L 18.628906 19.003906 L 22.21875 22.539062 L 23.460938 22.554688 L 24.6875 22.554688 L 24.6875 23.289062 C 24.6875 23.808594 24.742188 24.046875 24.875 24.101562 C 25.117188 24.195312 28.160156 22.445312 28.160156 22.21875 C 28.160156 22.007812 25.089844 20.257812 24.863281 20.339844 C 24.742188 20.390625 24.6875 20.671875 24.6875 21.179688 L 24.6875 21.953125 L 23.527344 21.914062 L 22.351562 21.859375 L 18.910156 18.441406 L 15.480469 15.011719 L 18.910156 11.582031 L 22.351562 8.167969 L 23.527344 8.113281 L 24.6875 8.074219 L 24.6875 8.847656 C 24.6875 9.382812 24.742188 9.636719 24.875 9.6875 C 25.101562 9.78125 28.160156 8.035156 28.160156 7.808594 C 28.160156 7.578125 25.117188 5.832031 24.875 5.925781 C 24.742188 5.980469 24.6875 6.21875 24.6875 6.738281 L 24.6875 7.472656 L 22.085938 7.472656 L 18.550781 11.011719 L 15.011719 14.546875 L 11.476562 11.011719 L 7.941406 7.472656 L 5.269531 7.472656 L 5.269531 6.710938 C 5.269531 6.125 5.21875 5.9375 5.070312 5.910156 C 4.964844 5.898438 4.191406 6.273438 3.375 6.753906 Z M 4.671875 7.792969 L 4.671875 8.929688 L 3.722656 8.378906 C 3.214844 8.085938 2.816406 7.808594 2.855469 7.765625 C 2.9375 7.699219 4.578125 6.6875 4.644531 6.671875 C 4.65625 6.671875 4.671875 7.179688 4.671875 7.792969 Z M 26.183594 7.167969 C 26.648438 7.445312 27.0625 7.714844 27.105469 7.765625 C 27.144531 7.847656 25.449219 8.941406 25.289062 8.941406 C 25.277344 8.941406 25.261719 8.433594 25.261719 7.808594 C 25.261719 7.179688 25.277344 6.671875 25.289062 6.671875 C 25.316406 6.671875 25.714844 6.898438 26.183594 7.167969 Z M 4.671875 22.207031 L 4.671875 23.339844 L 3.722656 22.792969 C 3.214844 22.5 2.828125 22.21875 2.871094 22.179688 C 2.9375 22.101562 4.539062 21.125 4.644531 21.097656 C 4.65625 21.085938 4.671875 21.59375 4.671875 22.207031 Z M 26.328125 21.660156 C 26.824219 21.941406 27.222656 22.191406 27.222656 22.21875 C 27.222656 22.261719 25.410156 23.355469 25.328125 23.355469 C 25.300781 23.355469 25.289062 22.847656 25.289062 22.21875 C 25.289062 21.59375 25.316406 21.097656 25.355469 21.113281 C 25.394531 21.140625 25.824219 21.378906 26.328125 21.660156 Z M 26.328125 21.660156 "/>
</g>
</svg>
